<mxfile host="app.diagrams.net" agent="Mozilla/5.0 (Windows NT 10.0; Win64; x64) AppleWebKit/537.36 (KHTML, like Gecko) Chrome/135.0.0.0 Safari/537.36 Edg/135.0.0.0" version="27.1.5">
  <diagram name="Página-1" id="g07MNcbk4J6zvLcqiwy6">
    <mxGraphModel grid="1" page="1" gridSize="10" guides="1" tooltips="1" connect="1" arrows="1" fold="1" pageScale="1" pageWidth="2000" pageHeight="2000" math="0" shadow="0">
      <root>
        <mxCell id="0" />
        <mxCell id="1" parent="0" />
        <mxCell id="L5HHWB7JxnQVJ1HjprY0-7" style="edgeStyle=orthogonalEdgeStyle;rounded=0;orthogonalLoop=1;jettySize=auto;html=1;endArrow=none;startFill=0;" edge="1" parent="1" source="L5HHWB7JxnQVJ1HjprY0-1" target="L5HHWB7JxnQVJ1HjprY0-2">
          <mxGeometry relative="1" as="geometry" />
        </mxCell>
        <mxCell id="L5HHWB7JxnQVJ1HjprY0-1" value="Aluno" style="shape=umlActor;verticalLabelPosition=bottom;verticalAlign=top;html=1;outlineConnect=0;" vertex="1" parent="1">
          <mxGeometry x="40" y="20" width="30" height="60" as="geometry" />
        </mxCell>
        <mxCell id="L5HHWB7JxnQVJ1HjprY0-10" style="edgeStyle=orthogonalEdgeStyle;rounded=0;orthogonalLoop=1;jettySize=auto;html=1;endArrow=none;startFill=0;" edge="1" parent="1" source="L5HHWB7JxnQVJ1HjprY0-2" target="L5HHWB7JxnQVJ1HjprY0-4">
          <mxGeometry relative="1" as="geometry" />
        </mxCell>
        <mxCell id="L5HHWB7JxnQVJ1HjprY0-2" value=":VantagemView" style="rounded=0;whiteSpace=wrap;html=1;" vertex="1" parent="1">
          <mxGeometry x="370" y="20" width="120" height="60" as="geometry" />
        </mxCell>
        <mxCell id="L5HHWB7JxnQVJ1HjprY0-13" style="edgeStyle=orthogonalEdgeStyle;rounded=0;orthogonalLoop=1;jettySize=auto;html=1;endArrow=none;startFill=0;" edge="1" parent="1" source="L5HHWB7JxnQVJ1HjprY0-4" target="L5HHWB7JxnQVJ1HjprY0-5">
          <mxGeometry relative="1" as="geometry" />
        </mxCell>
        <mxCell id="L5HHWB7JxnQVJ1HjprY0-4" value=":VantagemController" style="rounded=0;whiteSpace=wrap;html=1;" vertex="1" parent="1">
          <mxGeometry x="370" y="300" width="120" height="60" as="geometry" />
        </mxCell>
        <mxCell id="L5HHWB7JxnQVJ1HjprY0-16" style="edgeStyle=orthogonalEdgeStyle;rounded=0;orthogonalLoop=1;jettySize=auto;html=1;" edge="1" parent="1" source="L5HHWB7JxnQVJ1HjprY0-5" target="L5HHWB7JxnQVJ1HjprY0-6">
          <mxGeometry relative="1" as="geometry" />
        </mxCell>
        <mxCell id="L5HHWB7JxnQVJ1HjprY0-5" value=":VantagemRepository" style="rounded=0;whiteSpace=wrap;html=1;" vertex="1" parent="1">
          <mxGeometry x="370" y="580" width="120" height="60" as="geometry" />
        </mxCell>
        <mxCell id="L5HHWB7JxnQVJ1HjprY0-6" value=":VantagemModel" style="rounded=0;whiteSpace=wrap;html=1;" vertex="1" parent="1">
          <mxGeometry x="870" y="580" width="120" height="60" as="geometry" />
        </mxCell>
        <mxCell id="L5HHWB7JxnQVJ1HjprY0-8" value="1. carregarVantagens()" style="text;html=1;align=center;verticalAlign=middle;whiteSpace=wrap;rounded=0;" vertex="1" parent="1">
          <mxGeometry x="120" y="20" width="130" height="30" as="geometry" />
        </mxCell>
        <mxCell id="L5HHWB7JxnQVJ1HjprY0-9" value="" style="endArrow=classic;html=1;rounded=0;" edge="1" parent="1">
          <mxGeometry width="50" height="50" relative="1" as="geometry">
            <mxPoint x="250" y="34.67" as="sourcePoint" />
            <mxPoint x="290" y="34.67" as="targetPoint" />
          </mxGeometry>
        </mxCell>
        <mxCell id="L5HHWB7JxnQVJ1HjprY0-11" value="1.1 [Se houver vantagens disponíveis]&lt;div&gt;GET api/vantagens()&lt;/div&gt;" style="text;html=1;align=center;verticalAlign=middle;whiteSpace=wrap;rounded=0;" vertex="1" parent="1">
          <mxGeometry x="450" y="170" width="220" height="50" as="geometry" />
        </mxCell>
        <mxCell id="L5HHWB7JxnQVJ1HjprY0-12" value="" style="endArrow=classic;html=1;rounded=0;" edge="1" parent="1">
          <mxGeometry width="50" height="50" relative="1" as="geometry">
            <mxPoint x="445" y="180" as="sourcePoint" />
            <mxPoint x="445" y="210" as="targetPoint" />
          </mxGeometry>
        </mxCell>
        <mxCell id="L5HHWB7JxnQVJ1HjprY0-14" value="1.2 getAll()" style="text;html=1;align=center;verticalAlign=middle;whiteSpace=wrap;rounded=0;" vertex="1" parent="1">
          <mxGeometry x="460" y="460" width="80" height="30" as="geometry" />
        </mxCell>
        <mxCell id="L5HHWB7JxnQVJ1HjprY0-15" value="" style="endArrow=classic;html=1;rounded=0;" edge="1" parent="1">
          <mxGeometry width="50" height="50" relative="1" as="geometry">
            <mxPoint x="450" y="455" as="sourcePoint" />
            <mxPoint x="450" y="495" as="targetPoint" />
          </mxGeometry>
        </mxCell>
        <mxCell id="L5HHWB7JxnQVJ1HjprY0-18" style="edgeStyle=orthogonalEdgeStyle;rounded=0;orthogonalLoop=1;jettySize=auto;html=1;" edge="1" parent="1" source="L5HHWB7JxnQVJ1HjprY0-17">
          <mxGeometry relative="1" as="geometry">
            <mxPoint x="720" y="595" as="targetPoint" />
          </mxGeometry>
        </mxCell>
        <mxCell id="L5HHWB7JxnQVJ1HjprY0-17" value="1.3 findAll()" style="text;html=1;align=center;verticalAlign=middle;whiteSpace=wrap;rounded=0;" vertex="1" parent="1">
          <mxGeometry x="580" y="580" width="90" height="30" as="geometry" />
        </mxCell>
        <mxCell id="L5HHWB7JxnQVJ1HjprY0-20" style="edgeStyle=orthogonalEdgeStyle;rounded=0;orthogonalLoop=1;jettySize=auto;html=1;endArrow=open;endFill=0;dashed=1;dashPattern=8 8;" edge="1" parent="1" source="L5HHWB7JxnQVJ1HjprY0-19">
          <mxGeometry relative="1" as="geometry">
            <mxPoint x="620" y="635" as="targetPoint" />
          </mxGeometry>
        </mxCell>
        <mxCell id="L5HHWB7JxnQVJ1HjprY0-19" value="1.4 listaDeVantagens:List" style="text;html=1;align=center;verticalAlign=middle;whiteSpace=wrap;rounded=0;" vertex="1" parent="1">
          <mxGeometry x="660" y="620" width="140" height="30" as="geometry" />
        </mxCell>
        <mxCell id="L5HHWB7JxnQVJ1HjprY0-21" value="1.5 listaDeVantagens:List" style="text;html=1;align=center;verticalAlign=middle;whiteSpace=wrap;rounded=0;" vertex="1" parent="1">
          <mxGeometry x="250" y="460" width="150" height="30" as="geometry" />
        </mxCell>
        <mxCell id="L5HHWB7JxnQVJ1HjprY0-22" value="" style="endArrow=open;html=1;rounded=0;endFill=0;dashed=1;dashPattern=8 8;" edge="1" parent="1">
          <mxGeometry width="50" height="50" relative="1" as="geometry">
            <mxPoint x="410" y="495" as="sourcePoint" />
            <mxPoint x="410" y="455" as="targetPoint" />
          </mxGeometry>
        </mxCell>
        <mxCell id="L5HHWB7JxnQVJ1HjprY0-23" value="1.6 listaDeVantagens:list" style="text;html=1;align=center;verticalAlign=middle;whiteSpace=wrap;rounded=0;" vertex="1" parent="1">
          <mxGeometry x="260" y="180" width="150" height="30" as="geometry" />
        </mxCell>
        <mxCell id="L5HHWB7JxnQVJ1HjprY0-24" value="" style="endArrow=open;html=1;rounded=0;endFill=0;dashed=1;dashPattern=8 8;" edge="1" parent="1">
          <mxGeometry width="50" height="50" relative="1" as="geometry">
            <mxPoint x="420" y="215" as="sourcePoint" />
            <mxPoint x="420" y="175" as="targetPoint" />
          </mxGeometry>
        </mxCell>
        <mxCell id="L5HHWB7JxnQVJ1HjprY0-26" style="edgeStyle=orthogonalEdgeStyle;rounded=0;orthogonalLoop=1;jettySize=auto;html=1;endArrow=open;endFill=0;dashed=1;dashPattern=8 8;" edge="1" parent="1">
          <mxGeometry relative="1" as="geometry">
            <mxPoint x="180" y="65" as="targetPoint" />
            <mxPoint x="240" y="65" as="sourcePoint" />
          </mxGeometry>
        </mxCell>
        <mxCell id="L5HHWB7JxnQVJ1HjprY0-25" value="1.7 exibirVantagens(listaDeVantagens)" style="text;html=1;align=center;verticalAlign=middle;whiteSpace=wrap;rounded=0;" vertex="1" parent="1">
          <mxGeometry x="110" y="60" width="220" height="50" as="geometry" />
        </mxCell>
      </root>
    </mxGraphModel>
  </diagram>
</mxfile>
